<svg width="200" height="200" viewBox="0 0 200 200" fill="none" xmlns="http://www.w3.org/2000/svg">
    <path d="M0 0H200V200H0V0Z" fill="#F4F3F8"/>
    <path opacity="0.15" d="M54.2871 59.9994C54.2871 56.8436 56.8455 54.2852 60.0014 54.2852H140.001C143.157 54.2852 145.716 56.8436 145.716 59.9994V139.999C145.716 143.155 143.157 145.714 140.001 145.714H60.0014C56.8455 145.714 54.2871 143.155 54.2871 139.999V59.9994Z" fill="#F4F3F8"/>
    <path d="M74.7759 113.795L77.8064 116.826L74.7759 113.795ZM90.9383 113.795L87.9079 116.826L90.9383 113.795ZM91.9189 114.776L94.9491 111.746L91.9189 114.776ZM108.081 114.776L105.051 111.746L108.081 114.776ZM120.49 102.367L117.46 99.3366L120.49 102.367ZM136.653 102.367L139.683 99.3366L136.653 102.367ZM60 58.5714H140V50H60V58.5714ZM141.429 60V140H150V60H141.429ZM140 141.429H60V150H140V141.429ZM58.5714 140V60H50V140H58.5714ZM60 141.429C59.211 141.429 58.5714 140.789 58.5714 140H50C50 145.523 54.4771 150 60 150V141.429ZM141.429 140C141.429 140.789 140.789 141.429 140 141.429V150C145.523 150 150 145.523 150 140H141.429ZM140 58.5714C140.789 58.5714 141.429 59.211 141.429 60H150C150 54.4771 145.523 50 140 50V58.5714ZM60 50C54.4771 50 50 54.4771 50 60H58.5714C58.5714 59.211 59.211 58.5714 60 58.5714V50ZM57.3162 137.316L77.8064 116.826L71.7455 110.765L51.2553 131.255L57.3162 137.316ZM87.9079 116.826L88.8886 117.806L94.9491 111.746L93.9686 110.765L87.9079 116.826ZM111.111 117.806L123.521 105.397L117.46 99.3366L105.051 111.746L111.111 117.806ZM133.622 105.397L142.684 114.459L148.745 108.398L139.683 99.3366L133.622 105.397ZM123.521 105.397C126.31 102.608 130.833 102.608 133.622 105.397L139.683 99.3366C133.546 93.1994 123.597 93.1994 117.46 99.3366L123.521 105.397ZM88.8886 117.806C95.0251 123.943 104.975 123.943 111.111 117.806L105.051 111.746C102.261 114.535 97.7389 114.535 94.9491 111.746L88.8886 117.806ZM77.8064 116.826C80.5958 114.037 85.1185 114.037 87.9079 116.826L93.9686 110.765C87.832 104.628 77.8823 104.628 71.7455 110.765L77.8064 116.826ZM88.2343 81.9771C88.2343 85.4331 85.4274 88.24 81.9714 88.24V96.8114C90.1611 96.8114 96.8057 90.1669 96.8057 81.9771H88.2343ZM81.9714 88.24C78.5227 88.24 75.7143 85.4346 75.7143 81.9771H67.1429C67.1429 90.1651 73.7858 96.8114 81.9714 96.8114V88.24ZM75.7143 81.9771C75.7143 78.5197 78.5227 75.7143 81.9714 75.7143V67.1429C73.7858 67.1429 67.1429 73.7889 67.1429 81.9771H75.7143ZM81.9714 75.7143C85.4274 75.7143 88.2343 78.5212 88.2343 81.9771H96.8057C96.8057 73.7874 90.1611 67.1429 81.9714 67.1429V75.7143Z" fill="#E42829"/>
</svg>
