<svg width="200" height="62" viewBox="0 0 200 62" fill="none" xmlns="http://www.w3.org/2000/svg">
<path d="M60.6099 27.1162L35.0105 1.60937C32.8569 -0.536457 29.3667 -0.536457 27.2146 1.60937L1.61521 27.1162C-0.538405 29.262 -0.538405 32.7396 1.61521 34.8838L24.5809 57.7664L24.9193 46.1463C24.9209 45.8467 24.9351 45.5565 24.9603 45.271C19.7667 42.9275 16.1427 37.7183 16.1427 31.6776C16.1427 27.2668 18.0885 23.1069 21.4811 20.2614C21.8668 19.9383 22.4036 19.8677 22.8602 20.0795C23.3151 20.2913 23.6064 20.7461 23.6064 21.2465V31.4972L31.1126 35.3795L38.6203 31.4972V21.2481C38.6203 20.7477 38.9115 20.2913 39.3681 20.0811C39.8231 19.8693 40.3599 19.9399 40.7456 20.263C44.1382 23.1069 46.084 27.2683 46.084 31.6792C46.084 37.7245 42.4553 42.9354 37.257 45.2757C37.2869 45.5612 37.3042 45.8498 37.3058 46.1416L37.7371 57.6754L60.6099 34.8854C62.7635 32.7396 62.7635 29.2604 60.6099 27.1162Z" fill="#373E4B"/>
<path d="M37.257 45.2741C42.4553 42.9322 46.0824 37.7214 46.084 31.6776C46.0824 27.2683 44.1382 23.1053 40.7456 20.2614C40.3615 19.9383 39.8231 19.8677 39.3681 20.0795C38.9115 20.2912 38.6203 20.7461 38.6203 21.2465V31.4957L31.5719 35.1418C31.2838 35.2909 30.9413 35.2909 30.6531 35.1419L23.6048 31.4972V21.2465C23.6048 20.7446 23.3135 20.2912 22.8586 20.0795C22.402 19.8677 21.8652 19.9383 21.4795 20.2614C18.0869 23.1053 16.1411 27.2667 16.1411 31.6776C16.1411 37.7182 19.7651 42.9275 24.9587 45.271C24.9335 45.5565 24.9193 45.8467 24.9177 46.1463L24.5793 57.7664L27.213 60.3906C29.3667 62.5364 32.8568 62.5364 35.0089 60.3906L37.7356 57.6738L37.3042 46.14C37.3058 45.8482 37.2869 45.5596 37.257 45.2741Z" fill="#FFE600"/>
<path d="M36.0146 10.8069L31.7456 8.28911C31.3543 8.05939 30.8707 8.05939 30.4794 8.28911L26.2104 10.8069C25.8177 11.0378 25.5771 11.4651 25.5771 11.9259V16.9603C25.5771 17.4215 25.8177 17.8506 26.2104 18.0803L30.4794 20.5981C30.6742 20.7117 30.8935 20.7699 31.1126 20.7699C31.3317 20.7699 31.5508 20.7117 31.7459 20.5981L36.0148 18.0803C36.4082 17.848 36.6481 17.4215 36.6481 16.9603V11.9259C36.6476 11.4651 36.408 11.0378 36.0146 10.8069ZM31.1124 15.9513C30.298 15.9513 29.6357 15.2744 29.6357 14.4423C29.6357 13.6103 30.298 12.9334 31.1124 12.9334C31.9284 12.9334 32.5916 13.6103 32.5916 14.4423C32.5916 15.2744 31.9284 15.9513 31.1124 15.9513Z" fill="#FFE600"/>
<path d="M76.5025 40.4545C81.5887 40.4545 83.1449 38.0341 83.1449 35.0842C83.1449 31.6804 80.1843 30.5837 77.831 30.0542C75.6295 29.5625 74.6047 29.4491 74.6047 28.5414C74.6047 27.8985 75.174 27.5959 76.3507 27.5959C77.5653 27.5959 78.704 28.1632 79.4631 28.8062L82.196 25.8941C80.8675 24.5326 78.9697 23.6627 76.3127 23.6627C72.8587 23.6627 70.0499 25.1377 70.0499 28.7683C70.0499 32.1343 72.5171 33.3445 74.7186 33.9118C77.3376 34.5925 78.3624 34.5925 78.3624 35.4624C78.3624 36.1431 77.831 36.4457 76.1609 36.4457C74.6426 36.4457 73.2382 35.8027 72.1375 34.7438L69.1389 37.3912C70.5433 39.0552 72.7448 40.4545 76.5025 40.4545Z" fill="#373E4B"/>
<path d="M86.3081 40.4544H91.4323V31.8316C91.4323 29.7893 92.6469 28.6548 94.6965 28.6548C96.5185 28.6548 97.3915 29.6759 97.3915 31.4912V40.4544H102.516V31.1508C102.516 26.5747 99.9725 24.003 96.4425 24.003C94.2031 24.003 92.4191 25.0241 91.4323 26.8772V13.1488H86.3081V40.4544Z" fill="#373E4B"/>
<path d="M106.04 20.8661L108.48 22.2772C108.703 22.4059 108.98 22.4059 109.203 22.2772L111.643 20.8661C111.867 20.7367 112.005 20.4973 112.005 20.239V17.4176C112.005 17.1591 111.867 16.9186 111.643 16.7899L109.203 15.3788C109.092 15.3152 108.967 15.2826 108.842 15.2826C108.716 15.2826 108.591 15.3152 108.48 15.3788L106.04 16.7899C105.816 16.9201 105.678 17.1591 105.678 17.4176L105.678 20.239C105.679 20.4973 105.816 20.7367 106.04 20.8661ZM108.842 17.9831C109.307 17.9831 109.685 18.3624 109.685 18.8287C109.685 19.2951 109.307 19.6744 108.842 19.6744C108.375 19.6744 107.996 19.2951 107.996 18.8287C107.996 18.3624 108.375 17.9831 108.842 17.9831Z" fill="#FFE600"/>
<path d="M106.279 40.4546H111.404V24.3435H106.279V40.4546Z" fill="#373E4B"/>
<path d="M174.139 30.8862H170.381C166.396 30.8862 163.777 32.2855 163.777 35.7271C163.777 39.4712 166.509 40.7949 169.47 40.7949C171.634 40.7949 173.038 40.0763 174.253 38.2231L174.139 40.4545H179.225V31.3022C179.225 26.2344 176.075 24.0031 171.937 24.0031C168.142 24.0031 166.434 25.1755 164.915 26.6504L167.762 29.676C168.483 29.033 169.508 28.201 171.444 28.201C173.152 28.201 174.063 29.033 174.139 30.8862ZM174.139 33.9117V34.5547C174.139 35.9162 173.076 36.8238 170.988 36.8238C169.546 36.8238 168.787 36.2944 168.787 35.3867C168.787 34.479 169.356 33.9117 170.647 33.9117H174.139Z" fill="#FFE600"/>
<path d="M193.547 24.3063C192.826 24.1172 192.029 24.0038 191.156 24.0038C187.019 24.0038 184.21 26.462 184.21 29.9036C184.21 31.3029 184.741 32.5888 185.652 33.5721C184.21 34.215 183.413 35.3118 183.413 36.7489C183.413 38.2239 184.02 39.2828 185.349 40.0014C183.527 40.6821 182.388 41.8167 182.388 43.5564C182.388 46.6198 185.273 48.8511 191.08 48.8511C197.495 48.8511 200 46.2794 200 42.8757C200 39.7367 197.495 37.9213 193.092 37.6944L189.107 37.5053C187.93 37.4675 187.436 36.9758 187.436 36.2195C187.436 35.8034 187.588 35.4631 187.854 35.2361C188.765 35.69 189.866 35.8791 191.156 35.8791C195.293 35.8791 197.95 33.3452 197.95 29.9036C197.95 29.185 197.761 28.5043 197.381 27.937H199.772V24.3063H193.547ZM191.08 32.1728C189.524 32.1728 188.689 31.2651 188.689 29.9036C188.689 28.6178 189.524 27.7479 191.08 27.7479C192.636 27.7479 193.472 28.6178 193.472 29.9036C193.472 31.2651 192.636 32.1728 191.08 32.1728ZM187.816 41.6654L192.067 41.9302C194.155 42.0436 194.762 42.3462 194.762 43.2539C194.762 44.2372 194.079 45.0314 191.08 45.0314C188.271 45.0314 187.361 44.1993 187.361 42.9135C187.361 42.4218 187.512 42.0058 187.816 41.6654Z" fill="#FFE600"/>
<path d="M115.168 40.4545H120.292V31.8317C120.292 29.7894 121.506 28.6548 123.556 28.6548C125.378 28.6548 126.251 29.676 126.251 31.4913V40.4545H131.375V31.1509C131.375 26.5748 128.832 24.0031 125.302 24.0031C123.063 24.0031 121.165 25.062 120.178 26.9908L120.292 24.3434H115.168V40.4545Z" fill="#373E4B"/>
<path d="M134.538 40.4545H139.662V31.832C139.662 29.6386 140.573 28.6554 142.547 28.6554C144.483 28.6554 145.052 29.6764 145.052 31.5673V40.4545H150.138V31.832C150.138 29.6386 151.011 28.6554 152.984 28.6554C154.92 28.6554 155.527 29.6764 155.527 31.5673V40.4545H160.613V31.1135C160.613 26.6888 158.26 24.0038 154.199 24.0038C151.808 24.0038 150.024 25.1005 148.696 26.7645C147.709 24.8736 146.228 24.0038 144.141 24.0038C142.205 24.0038 140.687 24.8736 139.548 26.8401L139.662 24.3441H134.538V40.4545Z" fill="#FFE600"/>
</svg>
